# xmcd CD database file
#
# Track frame offsets:
#	150
#	17304
#	33087
#	50239
#
# Disc length: 879 seconds
#
# Revision: 2
# Processed by: cddbd v1.5.2PL0 Copyright (c) Steve Scherf et al.
# Submitted via: CDex 1.70beta2
#
DISCID=25036d04
DTITLE=あゆみくりかまき - 心友フォーエヴァー
DYEAR=2015
DGENRE=JPop
TTITLE0=心友フォーエヴァー
TTITLE1=森森森
TTITLE2=心友フォーエヴァー (Instrumental)
TTITLE3=森森森 (Instrumental)
EXTD=YEAR: 2015
EXTT0=
EXTT1=
EXTT2=
EXTT3=
PLAYORDER=
